<svg xmlns="http://www.w3.org/2000/svg" xmlns:xlink="http://www.w3.org/1999/xlink" width="256" zoomAndPan="magnify" viewBox="0 0 192 191.999996" height="256" preserveAspectRatio="xMidYMid meet" version="1.0"><defs><g/></defs><g fill="#4a90e2" fill-opacity="1"><g transform="translate(13.718819, 147.341338)"><g><path d="M 16.859375 1.4375 C 15.222656 1.4375 13.925781 0.9375 12.96875 -0.0625 C 12.007812 -1.070312 11.53125 -2.492188 11.53125 -4.328125 L 11.53125 -83.578125 C 11.53125 -88.953125 13.140625 -93.175781 16.359375 -96.25 C 19.578125 -99.320312 24.066406 -100.859375 29.828125 -100.859375 L 74.5 -100.859375 C 78.238281 -100.859375 80.109375 -99.320312 80.109375 -96.25 C 80.109375 -94.90625 79.628906 -93.847656 78.671875 -93.078125 C 77.710938 -92.316406 76.320312 -91.9375 74.5 -91.9375 L 29.96875 -91.9375 C 27.664062 -91.9375 25.816406 -91.164062 24.421875 -89.625 C 23.023438 -88.09375 22.328125 -86.078125 22.328125 -83.578125 L 22.328125 -54.609375 L 63.546875 -54.609375 C 67.296875 -54.609375 69.171875 -53.070312 69.171875 -50 C 69.171875 -48.5625 68.664062 -47.457031 67.65625 -46.6875 C 66.644531 -45.914062 65.273438 -45.53125 63.546875 -45.53125 L 22.328125 -45.53125 L 22.328125 -4.328125 C 22.328125 -2.492188 21.847656 -1.070312 20.890625 -0.0625 C 19.929688 0.9375 18.585938 1.4375 16.859375 1.4375 Z M 16.859375 1.4375 "/></g></g></g><g fill="#4a90e2" fill-opacity="1"><g transform="translate(72.933514, 147.341338)"><g><path d="M 16 1.4375 C 14.363281 1.4375 13.0625 0.9375 12.09375 -0.0625 C 11.132812 -1.070312 10.65625 -2.492188 10.65625 -4.328125 L 10.65625 -63.109375 C 10.65625 -71.085938 12.359375 -78.03125 15.765625 -83.9375 C 19.179688 -89.84375 24.054688 -94.378906 30.390625 -97.546875 C 36.734375 -100.722656 44.179688 -102.3125 52.734375 -102.3125 C 61.285156 -102.3125 68.707031 -100.722656 75 -97.546875 C 81.289062 -94.378906 86.140625 -89.84375 89.546875 -83.9375 C 92.960938 -78.03125 94.671875 -71.085938 94.671875 -63.109375 L 94.671875 -4.328125 C 94.671875 -2.492188 94.210938 -1.070312 93.296875 -0.0625 C 92.390625 0.9375 91.070312 1.4375 89.34375 1.4375 C 87.707031 1.4375 86.382812 0.9375 85.375 -0.0625 C 84.363281 -1.070312 83.859375 -2.492188 83.859375 -4.328125 L 83.859375 -63.546875 C 83.859375 -72.859375 81.117188 -80.109375 75.640625 -85.296875 C 70.171875 -90.484375 62.535156 -93.078125 52.734375 -93.078125 C 43.128906 -93.078125 35.515625 -90.4375 29.890625 -85.15625 C 24.273438 -79.875 21.46875 -72.671875 21.46875 -63.546875 L 21.46875 -4.328125 C 21.46875 -2.492188 20.988281 -1.070312 20.03125 -0.0625 C 19.070312 0.9375 17.726562 1.4375 16 1.4375 Z M 16 1.4375 "/></g></g></g></svg>